<?xml version="1.0" encoding="UTF-8" standalone="no"?>
<!-- Created with Inkscape (http://www.inkscape.org/) -->

<svg
   version="1.1"
   id="svg1140"
   width="2730.6667"
   height="682.66669"
   viewBox="0 0 2730.6667 682.66669"
   sodipodi:docname="RESCOELight.svg"
   inkscape:version="1.1.1 (3bf5ae0d25, 2021-09-20)"
   xmlns:inkscape="http://www.inkscape.org/namespaces/inkscape"
   xmlns:sodipodi="http://sodipodi.sourceforge.net/DTD/sodipodi-0.dtd"
   xmlns="http://www.w3.org/2000/svg"
   xmlns:svg="http://www.w3.org/2000/svg">
  <defs
     id="defs1144" />
  <sodipodi:namedview
     id="namedview1142"
     pagecolor="#ffffff"
     bordercolor="#666666"
     borderopacity="1.0"
     inkscape:pageshadow="2"
     inkscape:pageopacity="0.0"
     inkscape:pagecheckerboard="0"
     showgrid="false"
     inkscape:zoom="0.46874999"
     inkscape:cx="1365.3334"
     inkscape:cy="340.26668"
     inkscape:window-width="1920"
     inkscape:window-height="1001"
     inkscape:window-x="-9"
     inkscape:window-y="-9"
     inkscape:window-maximized="1"
     inkscape:current-layer="g1146" />
  <g
     inkscape:groupmode="layer"
     inkscape:label="Image"
     id="g1146">
    <path
       style="fill:#000000;stroke-width:1.33333"
       d="M 1085.3333,467.92439 C 1072.1656,465.97834 1052.9716,461.41922 1037,456.4438 l -15.6667,-4.8804 v -20.44836 c 0,-13.03939 0.4939,-20.44836 1.363,-20.44836 0.7496,0 5.9996,2.32471 11.6666,5.16603 27.5664,13.82104 53.2371,20.30026 80.0959,20.21602 26.8745,-0.0843 43.2503,-4.86166 55.5607,-16.20906 9.3622,-8.62978 12.9972,-16.76976 13.7061,-30.69244 1.2614,-24.7739 -9.3343,-39.09394 -35.761,-48.33095 -5.4805,-1.91563 -20.4646,-5.61588 -33.2979,-8.22278 -40.6512,-8.25766 -61.5977,-16.93709 -75.7469,-31.38669 -7.2981,-7.45295 -13.8354,-19.38343 -16.3697,-29.87421 -2.4519,-10.14935 -2.0842,-34.39691 0.6772,-44.66593 6.8616,-25.5164 26.7443,-45.22832 54.4994,-54.03134 16.4472,-5.2165 27.2551,-6.34514 53.6066,-5.59798 25.5596,0.72472 36.5099,2.32691 62.0006,9.07159 l 15.9994,4.23335 v 19.82886 c 0,10.97142 -0.54,19.82886 -1.209,19.82886 -0.665,0 -5.015,-1.70394 -9.6667,-3.78654 -12.0908,-5.41313 -31.9706,-11.74034 -44.9824,-14.31668 -13.7085,-2.71428 -46.4635,-2.02072 -56.2999,1.19211 -15.6269,5.10415 -26.9548,14.04777 -32.0133,25.27504 -2.5449,5.64856 -3.1421,9.24363 -3.1508,18.9694 -0.01,10.95424 0.3487,12.63908 4.1132,19.33334 7.3387,13.0499 19.7447,18.46609 62.5423,27.3045 43.3468,8.95183 60.0143,15.97094 76.3326,32.14547 15.268,15.13356 21.5964,31.98064 21.6442,57.62015 0.046,24.55775 -6.7726,43.00984 -21.3102,57.66916 -13.6952,13.80999 -31.1268,21.79571 -56.6666,25.96004 -12.9431,2.11039 -50.5862,2.44227 -63.3334,0.55839 z m 838.3243,-0.1642 c -0.9117,-0.57897 -3.9633,-1.06187 -6.7814,-1.07309 -8.8291,-0.0352 -31.3944,-5.27835 -43.1942,-10.03638 -16.6148,-6.69965 -30.2186,-15.72853 -43.0738,-28.5882 -9.0646,-9.06755 -12.5378,-13.72153 -17,-22.77896 -3.0846,-6.26071 -5.6082,-12.63744 -5.6082,-14.17049 0,-5.00355 3.9356,-12.65459 6.2758,-12.20035 1.1993,0.23279 4.8509,5.77951 8.177,12.42063 13.8132,27.57988 39.083,43.58402 65.7988,41.67252 16.3779,-1.17184 27.9111,-9.12268 35.409,-24.41032 1.9204,-3.91574 3.9824,-6.8162 4.5822,-6.4455 0.5998,0.37071 1.0906,3.35787 1.0906,6.63815 0,3.28027 0.9286,8.18667 2.0636,10.90311 2.1168,5.06612 6.8738,10.97537 8.8354,10.97537 0.6055,0 2.2694,1.16835 3.6974,2.59633 6.9384,6.9385 22.0261,6.12013 32.5068,-1.76322 6.8944,-5.18588 12.8968,-16.44112 12.8968,-24.18331 0,-3.04628 0.3048,-5.84348 0.6773,-6.216 0.3725,-0.37252 4.0571,1.02748 8.1879,3.11112 8.9042,4.49137 19.0186,5.02908 29.2193,1.55336 8.6656,-2.95269 19.3621,-13.58833 21.7345,-21.61084 1.8826,-6.36587 5.4452,-36.97875 5.4878,-47.15411 0.031,-7.2438 2.0469,-8.43863 3.3754,-2 0.4919,2.38333 1.7547,6.94896 2.8063,10.14583 1.4107,4.28783 1.7643,10.44131 1.3483,23.45881 -0.539,16.86247 -0.776,18.1051 -5.3359,27.97454 -15.582,33.72497 -47.3901,57.95149 -87.5009,66.64444 -13.1703,2.85432 -43.5703,5.87367 -45.6758,4.53656 z M 1550,465.85626 c -56.4521,-10.07916 -102.3218,-52.07738 -116.6581,-106.81174 -9.7491,-37.22062 -5.8983,-76.61887 10.7231,-109.71118 31.768,-63.24861 103.9493,-94.59609 174.9796,-75.99152 14.0905,3.69068 29.2078,10.34475 41.6741,18.34333 10.07,6.46115 19.7495,14.93524 15.2813,13.3783 -38.6882,-13.48099 -52.7246,-16.47936 -71.3333,-15.23779 -24.0635,1.60552 -49.2301,10.61619 -66.7553,23.90105 -9.605,7.28083 -26.2811,24.45435 -32.4431,33.41057 -7.0172,10.19917 -15.8173,30.03414 -18.7467,42.25413 -3.7753,15.74911 -3.7858,42.04316 -0.023,56.41128 8.1258,31.0233 27.058,60.59666 49.681,77.60488 25.1008,18.87105 60.4074,28.04215 90.0726,23.39694 10.6898,-1.67391 37.3898,-9.84874 43.1729,-13.21842 5.7341,-3.34108 6.2177,-0.43293 0.6993,4.20482 -14.3876,12.09172 -42.4352,24.21951 -64.8932,28.05989 -15.3037,2.61699 -40.7908,2.6195 -55.4317,0.005 z M 249.33334,317.91442 V 171.82885 l 60.33333,0.48734 c 56.6272,0.45742 60.95872,0.66168 70.5142,3.32538 38.0456,10.6056 56.6005,34.34044 58.13027,74.35844 1.36236,35.63841 -10.61924,59.26209 -36.55707,72.07821 l -9.84268,4.86336 5.85415,3.71259 c 7.95896,5.04741 17.06991,14.7071 25.05161,26.56039 5.39918,8.01808 54.51619,103.59043 54.51619,106.07811 0,0.38904 -9.75,0.70369 -21.66667,0.69923 l -21.66666,-0.008 -23.61143,-46.99189 c -29.91914,-59.54562 -35.40871,-66.76336 -55.6084,-73.11449 -7.23455,-2.27468 -13.6505,-2.89374 -36.44684,-3.5167 l -27.66667,-0.75604 v 62.19767 62.19769 H 270 249.33334 v -146.0856 z m 98.22398,-11.24865 c 15.33363,-1.61569 25.09722,-5.22508 33.03526,-12.21243 11.06044,-9.7358 16.52072,-25.78729 14.98864,-44.0619 -1.19868,-14.29789 -4.41166,-21.88597 -12.91779,-30.50793 -12.496,-12.66614 -26.31017,-15.77921 -70.33009,-15.8491 l -21.66667,-0.0344 v 52 52 L 313,307.97694 c 12.28334,-0.0133 27.83414,-0.60272 34.55732,-1.31113 z m 305.77602,11.33424 v -146 h 92.66667 92.66667 v 16.66666 16.66667 h -72 -72 v 43.33334 43.33333 h 69.33333 69.33333 v 16.66667 16.66666 h -69.33333 -69.33333 v 52.66667 52.66667 h 74 74 v 16.66667 16.66667 h -94.66667 -94.66667 z m 1606.66666,0 v -146 h 92.6667 92.6667 v 16.66666 16.66667 h -72 -72 v 43.33334 43.33333 H 2370.6667 2440 v 16.66667 16.66666 h -69.3333 -69.3333 v 52.66667 52.66667 h 74 74 v 16.66667 16.66667 H 2354.6667 2260 Z m -205.3333,-22.4 c 0,-4.91333 -0.5139,-8.93333 -1.142,-8.93333 -0.628,0 -1.1245,-1.65 -1.1032,-3.66667 0.021,-2.01667 -0.6303,-9.55496 -1.4479,-16.75177 -1.7688,-15.56898 -5.1392,-22.34898 -14.9748,-30.12354 -11.3774,-8.9934 -26.41,-10.26075 -39.4522,-3.32609 -3.3115,1.76077 -6.2892,3.2014 -6.6171,3.2014 -0.3279,0 -0.5961,-2.29312 -0.5961,-5.09582 0,-11.86054 -7.5978,-24.59238 -17.7956,-29.82068 -7.207,-3.69489 -18.4674,-3.8311 -24.7056,-0.29884 -2.4756,1.40176 -5.7996,3.271 -7.3866,4.15386 -4.2268,2.35138 -9.0344,11.76622 -10.719,20.99122 l -1.4738,8.07026 -4.5328,-8.43468 c -8.02,-14.92354 -21.2468,-22.93108 -37.77,-22.86606 -27.4808,0.10814 -49.3753,15.73436 -64.7377,46.20361 -2.2839,4.52992 -4.7568,8.60961 -5.4952,9.066 -1.7381,1.07422 -6.7056,-7.06319 -6.7121,-10.99536 -0.015,-9.24151 12.1977,-29.73235 24.9481,-41.85811 20.3312,-19.3351 47.3109,-31.32452 80.6865,-35.85599 13.283,-1.80344 18.6814,-1.69604 37.3883,0.74384 19.3149,2.51916 32.2381,6.26225 48.9721,14.18436 28.5562,13.51881 49.988,35.58439 58.8303,60.56951 3.3739,9.53336 4.6004,26.72499 2.6153,36.65968 -0.7966,3.98743 -2.053,10.22515 -2.7921,13.86161 -2.1191,10.42771 -3.9868,10.57836 -3.9868,0.32159 z"
       id="path1495" />
  </g>
</svg>
