<?xml version="1.0" encoding="UTF-8" standalone="no"?>
<!-- Created with Inkscape (http://www.inkscape.org/) -->

<svg
   version="1.1"
   id="svg1228"
   width="2730.6667"
   height="682.66669"
   viewBox="0 0 2730.6667 682.66669"
   sodipodi:docname="RescoleoptereBlanc.svg"
   inkscape:version="1.1.1 (3bf5ae0d25, 2021-09-20)"
   xmlns:inkscape="http://www.inkscape.org/namespaces/inkscape"
   xmlns:sodipodi="http://sodipodi.sourceforge.net/DTD/sodipodi-0.dtd"
   xmlns="http://www.w3.org/2000/svg"
   xmlns:svg="http://www.w3.org/2000/svg">
  <defs
     id="defs1232" />
  <sodipodi:namedview
     id="namedview1230"
     pagecolor="#ffffff"
     bordercolor="#666666"
     borderopacity="1.0"
     inkscape:pageshadow="2"
     inkscape:pageopacity="0.0"
     inkscape:pagecheckerboard="0"
     showgrid="false"
     inkscape:zoom="0.46874999"
     inkscape:cx="1365.3334"
     inkscape:cy="340.26668"
     inkscape:window-width="1920"
     inkscape:window-height="1001"
     inkscape:window-x="-9"
     inkscape:window-y="-9"
     inkscape:window-maximized="1"
     inkscape:current-layer="g1234" />
  <g
     inkscape:groupmode="layer"
     inkscape:label="Image"
     id="g1234">
    <path
       style="fill:#ffffff;stroke-width:1.33333;fill-opacity:1"
       d="m 1734.103,608.16655 c -0.3967,-0.64173 1.7478,-1.5616 4.7654,-2.04413 6.3155,-1.00988 14.465,-8.15257 14.465,-12.67795 0,-1.55221 -3.326,-9.45416 -7.3912,-17.55989 -7.2544,-14.46488 -7.4632,-14.72188 -11.2764,-13.88435 -3.4952,0.76766 -4.0803,0.38642 -5.8286,-3.79764 -1.0688,-2.55804 -3.258,-9.95008 -4.8649,-16.42677 -5.6429,-22.74398 -10.6476,-36.72447 -12.8444,-35.88144 -1.1069,0.42477 -2.2481,0.7723 -2.536,0.7723 -2.4365,0 -11.2489,28.96967 -11.2552,37.00001 0,2.96146 -0.6365,4.33333 -2.0033,4.33333 -2.6492,0 -2.6492,-8.37249 -3e-4,-22.21604 1.0999,-5.74784 1.9999,-13.31562 2,-16.81727 3e-4,-7.75515 -4.0097,-19.64664 -8.6979,-25.79313 -1.9946,-2.61518 -3.165,-5.53048 -2.7544,-6.86059 1.4216,-4.603 2.1268,-13.23853 2.1491,-26.31297 0.013,-7.33334 0.3877,-15.33706 0.8339,-17.78605 l 0.8112,-4.45272 2.8714,5.11939 c 1.5794,2.81565 4.7212,6.31938 6.9818,7.78604 l 4.1101,2.66667 -0.6572,10.73568 c -1.6241,26.52747 12.4283,44.10456 36.4952,45.64908 7.0089,0.44981 9.8571,1.14625 9.8571,2.41033 0,3.26899 -5.448,4.82392 -15.1796,4.3325 l -9.5088,-0.48018 6.02,10.01631 c 3.3109,5.50896 9.3158,16.47783 13.3441,24.37524 5.7875,11.34598 6.9436,14.59762 5.5103,15.49638 -1.4271,0.89488 -0.2016,4.08672 5.7469,14.96772 8.7617,16.02718 14.744,22.49694 20.8019,22.49694 5.6117,0 8.8212,-1.96157 11.5176,-7.03952 1.6824,-3.16806 2.4062,-3.70553 2.761,-2.04998 0.7558,3.52593 -3.3416,10.17932 -7.6365,12.40026 -4.9741,2.57227 -12.9459,2.57867 -17.8627,0.0144 -2.1005,-1.09548 -3.9689,-1.99178 -4.152,-1.99178 -0.183,0 -1.9654,2.35582 -3.9609,5.23518 -1.9953,2.87935 -5.6176,6.17935 -8.0495,7.33334 -4.7812,2.26882 -13.4149,2.82025 -14.5822,0.93134 z m -360.2988,-6.73498 c -4.9842,-3.03918 -7.7664,-10.17403 -6.4091,-16.43616 l 0.9381,-4.32872 -2.8414,2.54738 c -3.5615,3.1929 -5.0831,1.87583 -3.0325,-2.62484 l 1.5592,-3.42205 -5.6758,0.81121 c -10.3471,1.47882 -20.9315,-8.05269 -20.9874,-18.89968 -0.033,-6.45896 2.1547,-6.43432 3.7855,0.0427 2.9479,11.70707 11.5683,16.93817 20.6741,12.54568 7.5797,-3.65623 18.3274,-13.11456 17.5919,-15.48132 -0.3736,-1.20212 -0.2429,-2.81459 0.2903,-3.58325 1.0261,-1.47896 9.8369,-7.89352 10.9696,-7.98612 0.3667,-0.03 4.9253,-1.12318 10.1305,-2.42932 8.8155,-2.21212 9.4216,-2.59554 8.8479,-5.59646 -0.5305,-2.77548 0.2403,-3.58861 5.5663,-5.87159 8.4662,-3.62906 26.5542,-7.13856 32.534,-6.31236 5.3252,0.73578 21.588,-5.09456 21.588,-7.73946 0,-4.12072 -13.254,-14.58452 -27.6667,-21.84239 -4.5833,-2.30805 -8.3333,-4.78781 -8.3333,-5.5106 0,-3.45685 14.8949,0.57633 29.457,7.97623 4.3758,2.22364 9.1382,4.04297 10.5828,4.04297 1.4448,0 2.6268,0.51095 2.6268,1.13544 0,1.23376 11.035,4.38255 26.3468,7.51799 15.4076,3.15505 40.7038,5.97118 62.0112,6.90348 19.3566,0.84693 19.7476,0.80873 23,-2.24675 2.4044,-2.25885 3.3087,-4.50237 3.3087,-8.20924 v -5.10092 h 9.9048 c 7.3501,0 10.4615,-0.55677 12.0635,-2.15873 4.5454,-4.54548 3.376,-0.1759 -3.4987,13.07276 -3.9249,7.56394 -7.3189,14.03526 -7.5421,14.38069 -0.2232,0.34543 -0.8547,-0.0983 -1.4034,-0.98599 -0.7261,-1.17488 -3.3629,-0.35797 -9.6913,3.00238 -11.7077,6.21682 -26.7141,9.57728 -53.8328,12.05505 -45.0343,4.11467 -54.9169,7.31952 -65.0257,21.08702 -7.0911,9.65746 -16.0063,18.21349 -18.9782,18.21349 -2.9281,0 -2.5156,-1.28472 2.7848,-8.67093 3.9946,-5.56635 13.8858,-23.43534 13.8858,-25.08514 0,-0.26912 -4.3118,-2.18094 -9.5816,-4.2485 -9.4447,-3.70551 -9.6399,-3.72484 -13.6667,-1.35344 -20.3027,11.95646 -31.4184,16.44662 -31.4184,12.6913 0,-0.73333 -0.8416,-1.33333 -1.8701,-1.33333 -2.4799,0 -35.2971,21.95357 -39.1299,26.17661 -5.8239,6.41675 -2.7799,20.02083 5.0348,22.5011 2.9031,0.92138 3.6024,3.3252 0.9652,3.3173 -0.9167,-0.003 -3.5548,-1.1563 -5.8625,-2.56346 z m 570.2042,-21.09822 c 0,-0.55 1.8102,-2.02521 4.0122,-3.27824 5.6318,-3.20481 7.3974,-8.34606 5.1154,-14.89593 -1.4572,-4.18263 -3.446,-6.16287 -10.3777,-10.33333 -5.0957,-3.06588 -10.2689,-5.15916 -12.75,-5.15916 -2.9139,0 -7.7744,-2.44946 -16.0916,-8.10936 -6.5541,-4.46017 -13.2667,-9.36475 -14.9167,-10.8991 -3.4824,-3.23831 -4.0545,-10.00389 -0.9469,-11.19643 4.9503,-1.89956 36.8455,7.66454 40.5843,12.16959 1.142,1.37605 1.1618,2.58588 0.076,4.61581 -1.3255,2.47655 -0.6632,3.27395 6.6389,7.99353 4.4612,2.88341 9.7779,5.6086 11.8148,6.05598 8.4329,1.85218 16.1336,-5.74436 16.1823,-15.96336 0.019,-3.93572 0.3641,-4.80923 1.3178,-3.33333 2.0968,3.24452 1.5203,12.35121 -1.0986,17.35413 -1.4783,2.82395 -4.637,5.77828 -8.0546,7.5335 -3.0924,1.5882 -4.998,3.27361 -4.2346,3.74536 1.433,0.88569 1.9736,6.03368 0.6336,6.03368 -0.415,0 -1.8391,-0.5805 -3.1647,-1.28998 -2.1955,-1.17497 -2.3509,-0.76214 -1.7431,4.63066 0.6092,5.4041 0.2571,6.3309 -4.0353,10.6233 -4.2709,4.27098 -8.9821,6.21763 -8.9609,3.70268 z m -55.0845,-16.39421 c -2.5395,-2.96681 -6.5616,-9.04216 -8.938,-13.50076 -4.7656,-8.94131 -6.1749,-10.82392 -13.9859,-18.6827 -7.6216,-7.66834 -35.541,-25.88408 -57.3333,-37.4065 -20.3032,-10.73507 -29.2808,-16.10684 -30.6668,-18.34938 -0.49,-0.79288 -1.9635,-1.10118 -3.2744,-0.68513 -1.9959,0.63349 -3.1615,-1.40977 -7.1693,-12.56815 -2.6323,-7.32854 -5.1263,-16.19454 -5.5424,-19.70222 l -0.7566,-6.37762 9.7047,-6.66667 c 5.3377,-3.66666 10.3812,-6.84649 11.208,-7.06628 2.5753,-0.68464 4.9511,16.27402 4.0047,28.58602 l -0.859,11.17533 4.3032,2.61695 c 2.3668,1.43933 11.2208,4.77667 19.6756,7.41633 8.4547,2.63966 25.5723,8.02676 38.039,11.97135 32.2168,10.19373 30.7501,10.11389 47.9789,2.61192 13.4167,-5.84203 24.6877,-8.91587 24.6877,-6.73285 0,3.24094 -3.1248,6.09536 -6.3996,5.84582 -1.9916,-0.15176 -6.6164,1.35859 -10.2774,3.35632 -8.3014,4.52996 -24.6563,16.48007 -24.6563,18.01576 0,0.62899 3.6,4.52355 8,8.65458 4.4,4.13102 8,8.10405 8,8.82894 0,1.75087 -7.1548,5.38648 -10.6004,5.38648 -1.5032,0 -2.7329,0.19491 -2.7329,0.43314 0,2.05256 7.1456,20.60171 10.4764,27.19551 2.3046,4.56242 4.1902,8.91242 4.1902,9.66666 0,2.71808 -2.5442,1.27166 -7.0761,-4.02285 z m -331.9488,-74.68252 c -66.5859,-5.91298 -118.16,-29.12006 -157.7979,-71.00515 -18.8894,-19.96028 -32.0121,-41.48968 -39.6503,-65.05103 -4.7717,-14.71927 -5.5848,-23.33554 -2.8476,-30.1765 2.104,-5.25864 2.1019,-5.96833 -0.036,-11.56686 -1.9752,-5.17199 -2.069,-7.16324 -0.7068,-14.98638 4.5439,-26.09249 22.6927,-58.80637 45.3673,-81.77551 35.3036,-35.76252 79.4241,-56.97276 137.3632,-66.03525 17.3974,-2.7212 72.4717,-4.36814 75.0316,-2.24373 0.9596,0.7964 7.42,3.34192 14.3565,5.6567 32.4911,10.84258 51.3896,33.32126 55.9369,66.53376 3.7348,27.27674 -7.4186,64.33653 -25.4892,84.69349 -11.8496,13.3489 -11.8348,15.52265 0.1999,29.36652 17.1568,19.73607 28.992,59.38557 25.41,85.12705 -3.7875,27.21851 -18.7875,48.07155 -43.192,60.04577 -6.7396,3.30678 -15.6927,6.98502 -19.8957,8.17388 -4.2032,1.18884 -7.9886,2.72218 -8.412,3.40742 -0.9034,1.46163 -38.5814,1.35046 -55.6376,-0.16418 z m 48.4567,-23.40582 c 22.458,-3.84038 50.5056,-15.96817 64.8932,-28.05989 5.5196,-4.63868 5.034,-7.55114 -0.6994,-4.19504 -6.2666,3.6683 -31.1972,11.56608 -41.6256,13.18661 -5.8417,0.90779 -16.0986,1.2447 -24.6666,0.81022 -56.0408,-2.84182 -102.299,-43.26143 -117.0306,-102.25935 -4.0045,-16.03733 -3.9464,-40.15019 0.1366,-56.66667 8.8969,-35.99059 35.9056,-69.10349 70.2273,-86.09931 16.1892,-8.01674 30.3132,-11.77904 48,-12.78607 17.3039,-0.98523 32.224,1.61191 54.6077,9.50548 9.4303,3.32561 17.4562,6.04656 17.835,6.04656 2.1252,0 -7.1287,-7.70548 -16.3907,-13.64819 -44.3952,-28.48496 -103.8829,-31.47937 -151.3853,-7.62022 -63.2487,31.76802 -94.5962,103.94936 -75.9915,174.97959 14.3363,54.73436 60.206,96.73258 116.6581,106.81174 14.641,2.61404 40.128,2.61153 55.4318,-0.005 z m -518.7651,1.31296 c -14.9556,-2.02466 -38.746,-7.70706 -54,-12.89806 l -9.3334,-3.17616 -0.3689,-19.54477 c -0.203,-10.74961 -0.036,-19.54476 0.3713,-19.54476 0.4072,0 4.1732,1.72087 8.369,3.82416 55.7318,27.93778 117.7,28.58345 142.0681,1.48027 16.6168,-18.48193 14.6169,-51.62612 -3.9981,-66.25749 -11.0308,-8.67019 -20.5827,-12.00841 -54.5875,-19.07731 -14.0892,-2.92886 -30.32,-6.8876 -36.0686,-8.79722 -40.0616,-13.30804 -57.7309,-35.90292 -57.7424,-73.83908 -0.022,-71.55851 74.8475,-101.06444 178.9571,-70.52696 l 9,2.63988 v 18.61021 c 0,14.81335 -0.3704,18.6102 -1.8155,18.6102 -0.9986,0 -5.6486,-1.73056 -10.3334,-3.84568 -24.8045,-11.19896 -52.0741,-16.8363 -75.8511,-15.68037 -24.343,1.18345 -39.4955,6.79085 -50.0389,18.51769 -7.0735,7.86742 -10.1963,16.75184 -10.1963,29.00837 0,12.86262 3.0652,21.24854 10.1559,27.78452 9.9981,9.21592 18.3957,12.18768 57.3311,20.28856 44.4598,9.25026 59.0232,15.40161 75.4482,31.86822 15.9299,15.97017 21.7128,31.07279 21.7206,56.72537 0.01,26.11432 -6.1868,42.55652 -21.9459,58.24988 -22.6655,22.57087 -67.3287,32.32412 -117.1413,25.58053 z m 836.9909,0.59643 c -0.9117,-0.57897 -3.9633,-1.06187 -6.7814,-1.07309 -8.8291,-0.0352 -31.3944,-5.27835 -43.1942,-10.03638 -16.6148,-6.69965 -30.2186,-15.72853 -43.0738,-28.5882 -9.0646,-9.06755 -12.5378,-13.72153 -17,-22.77896 -3.0846,-6.26071 -5.6082,-12.63744 -5.6082,-14.17049 0,-5.00355 3.9356,-12.65459 6.2758,-12.20035 1.1993,0.23279 4.8509,5.77951 8.177,12.42063 13.8132,27.57988 39.083,43.58402 65.7988,41.67252 16.3779,-1.17184 27.9111,-9.12268 35.409,-24.41032 1.9204,-3.91574 3.9824,-6.8162 4.5822,-6.4455 0.5998,0.37071 1.0906,3.35787 1.0906,6.63815 0,3.28027 0.9286,8.18667 2.0636,10.90311 2.1168,5.06612 6.8738,10.97537 8.8354,10.97537 0.6055,0 2.2694,1.16835 3.6974,2.59633 6.9384,6.9385 22.0261,6.12013 32.5068,-1.76322 6.8944,-5.18588 12.8968,-16.44112 12.8968,-24.18331 0,-3.04628 0.3048,-5.84348 0.6773,-6.216 0.3725,-0.37252 4.0571,1.02748 8.1879,3.11112 17.9917,9.07519 40.1769,1.5748 49.0394,-16.57925 2.6682,-5.46539 3.8343,-11.0886 5.4146,-26.10808 1.1078,-10.52832 2.0141,-21.77833 2.0141,-25.00001 0,-6.84789 2.0572,-7.78422 3.3489,-1.52425 0.4919,2.38333 1.7363,6.89486 2.7655,10.0256 1.3264,4.03447 1.7543,10.83004 1.4695,23.33334 -0.3906,17.14564 -0.5392,17.93464 -5.2951,28.09477 -15.9281,34.02843 -47.4773,58.06959 -87.6221,66.76991 -13.1703,2.85432 -43.5703,5.87367 -45.6758,4.53656 z M 249.33334,318.00001 v -146 h 50.3683 c 64.4624,0 77.924,1.5834 98.96503,11.64062 25.70407,12.28607 39.01686,36.48224 39.07867,71.02605 0.0595,33.2092 -11.65631,54.22277 -37.32132,66.94029 l -11.07688,5.48881 5.50853,2.78544 c 8.06619,4.07876 18.9688,15.42806 27.9281,29.0723 4.33056,6.59508 18.39226,32.92852 31.24824,58.51877 l 23.3745,46.52773 h -21.42493 -21.42493 l -22.58723,-45.66667 c -28.99346,-58.61872 -35.0446,-66.90407 -54.44299,-74.5444 -6.8124,-2.68317 -10.40415,-3.01553 -37.85976,-3.50331 l -30.33333,-0.53891 v 62.12664 62.12665 h -20 -20 z m 109.02554,-12.01019 c 18.90699,-4.4577 30.28676,-14.25538 35.14863,-30.26202 3.72041,-12.24864 3.17049,-34.48313 -1.08553,-43.89099 -3.78471,-8.36602 -11.59888,-16.70812 -19.31183,-20.61656 -11.81047,-5.98483 -20.67564,-7.17924 -53.44348,-7.20054 l -30.33333,-0.0197 v 52 52 l 30.33333,-0.0197 c 22.0444,-0.0143 32.61749,-0.55824 38.69221,-1.99048 z m 294.97446,12.01019 v -146 h 92.66667 92.66667 v 16.66666 16.66667 h -72.66667 -72.66667 v 43.33334 43.33333 h 69.33334 69.33333 v 16.66667 16.66666 h -69.33333 -69.33334 v 52.66667 52.66667 h 74 74 v 16.66667 16.66667 h -94 -94 z m 1606.66666,0 v -146 h 92.6667 92.6667 v 16.66666 16.66667 H 2372.6667 2300 v 43.33334 43.33333 h 69.3334 69.3333 v 16.66667 16.66666 H 2369.3334 2300 v 52.66667 52.66667 h 74 74 v 16.66667 16.66667 h -94 -94 z M 1712.7654,438.1058 c -2.8791,-1.07409 -7.2418,-3.96003 -9.695,-6.41319 -4.8273,-4.82733 -5.7429,-8.25888 -10.412,-39.02593 -3.9816,-26.23723 -13.4097,-49.11232 -26.5601,-64.4422 -7.8915,-9.19927 -7.8505,-11.93336 0.3127,-20.86516 13.7564,-15.05172 22.7881,-38.73058 27.6713,-72.54782 1.7588,-12.17965 3.2099,-22.57395 3.2244,-23.09843 0.061,-2.218 8.8336,-10.73722 13.514,-13.12494 14.0124,-7.14863 41.4284,0.45629 62.6651,17.38266 26.9662,21.49316 38.4864,51.88917 38.5064,101.59941 0.021,53.85385 -12.8179,84.33149 -44.858,106.48076 -18.909,13.07173 -41.4115,18.88886 -54.3688,14.05484 z m 151.3472,-51.77245 c -0.6352,-1.65 -2.7127,-6.50719 -4.6166,-10.79374 -1.9038,-4.28656 -4.0713,-10.05816 -4.8166,-12.82578 -0.9588,-3.56059 -2.8499,-6.02131 -6.4671,-8.41508 l -5.1121,-3.38303 -12.1962,11.87548 c -7.5834,7.38404 -13.2664,11.87548 -15.026,11.87548 -2.0232,0 -2.601,-0.59648 -2.027,-2.09224 0.4416,-1.15075 2.0185,-8.05801 3.5045,-15.34951 5.294,-25.97845 4.8297,-58.95129 -1.1855,-84.19353 -1.3502,-5.66608 -2.1648,-10.59215 -1.8101,-10.94683 1.4535,-1.45347 8.2389,3.64665 18.2447,13.71321 l 10.6045,10.66896 4.7288,-4.13944 c 2.9348,-2.569 5.7711,-6.95721 7.4761,-11.56669 1.511,-4.085 4.4859,-11.17727 6.6108,-15.7606 3.8608,-8.32768 3.8674,-8.33333 9.586,-8.33333 4.5723,0 5.7167,0.469 5.6932,2.33333 -0.043,3.42981 -4.3981,12.41109 -8.2436,17 -1.8434,2.2 -4.3877,6.01961 -5.6537,8.48804 -1.266,2.46841 -3.4504,4.78839 -4.8543,5.15551 -1.4038,0.3671 -2.5524,1.19946 -2.5524,1.84966 0,0.65022 4.05,5.22514 9,10.16647 l 9,8.98427 -5.1598,0.4347 -5.1599,0.43471 0.9131,4.90999 c 2.0822,11.19634 2.1504,15.89668 0.3168,21.827 -2.1295,6.88706 -1.5507,7.74965 5.1989,7.74965 1.7733,0 3.2243,0.55224 3.2243,1.22721 0,0.67496 -3.943,4.78587 -8.7622,9.13533 l -8.7621,7.90813 3.7621,4.01261 c 8.1054,8.64502 17.7622,24.40992 17.7622,28.99694 0,1.5461 -1.4899,2.05312 -6.0331,2.05312 -5.0253,0 -6.2259,-0.50106 -7.1877,-3 z m 190.5541,-91.00001 c 0,-4.76666 -0.5139,-8.66666 -1.142,-8.66666 -0.628,0 -1.134,-1.65 -1.1243,-3.66667 0.04,-8.15275 -2.094,-24.05971 -4.0673,-30.32575 -3.0016,-9.53133 -13.8189,-19.86887 -23.8389,-22.78179 -9.2827,-2.69854 -19.3552,-1.66249 -27.8743,2.86718 -3.3519,1.7822 -6.3625,3.24036 -6.6904,3.24036 -0.3279,0 -0.5961,-2.29312 -0.5961,-5.09582 0,-11.86054 -7.5978,-24.59238 -17.7956,-29.82068 -7.207,-3.69489 -18.4674,-3.8311 -24.7056,-0.29884 -2.4756,1.40176 -5.7996,3.271 -7.3866,4.15386 -4.2268,2.35138 -9.0344,11.76622 -10.719,20.99122 l -1.4738,8.07026 -4.5328,-8.43468 c -8.02,-14.92354 -21.2468,-22.93108 -37.77,-22.86606 -27.4808,0.10814 -49.3753,15.73436 -64.7377,46.20361 -2.2839,4.52992 -4.7568,8.60961 -5.4952,9.066 -1.7381,1.07422 -6.7056,-7.06319 -6.7121,-10.99536 -0.015,-9.24151 12.1977,-29.73235 24.9481,-41.85811 20.3312,-19.3351 47.3109,-31.32452 80.6865,-35.85599 13.283,-1.80344 18.6814,-1.69604 37.3883,0.74384 19.3149,2.51916 32.2381,6.26225 48.9721,14.18436 29.126,13.78863 49.9767,35.54736 59.4256,62.01347 2.6712,7.482 3.2264,11.4212 3.073,21.79892 -0.1027,6.96667 -0.957,15.36667 -1.8975,18.66667 -0.9405,3.3 -2.1132,8.55 -2.606,11.66666 -1.3549,8.5682 -3.3284,6.78943 -3.3284,-3 z m -280.8569,-88.47443 c -4.5047,-3.40573 -9.2602,-6.82953 -10.5678,-7.60846 -2.1214,-1.26375 -2.2197,-2.19682 -0.9136,-8.66667 0.8052,-3.98773 3.381,-12.53769 5.7239,-18.99988 3.212,-8.8592 4.7456,-11.56303 6.2347,-10.99161 1.0946,0.42004 4.2072,-1.01031 6.9834,-3.2091 2.7548,-2.1818 13.6459,-8.55788 24.2024,-14.16907 32.3399,-17.18967 65.1939,-39.80113 65.1939,-44.868965 0,-1.427142 1.0608,-2.872218 2.3575,-3.21128 1.2965,-0.339061 4.43,-4.614008 6.9632,-9.499881 5.1457,-9.924877 11.3321,-17.633992 14.1508,-17.633992 2.5057,0 2.4498,0.244578 -2.127,9.311102 -4.108,8.137898 -10.6778,24.705136 -10.6778,26.926336 0,0.6893 0.5794,0.89517 1.2876,0.45749 1.4457,-0.89355 12.0457,4.12868 12.0457,5.70724 0,0.55806 -3.5903,4.5675 -7.9785,8.90987 l -7.9784,7.89524 2.9784,3.20738 c 7.5052,8.0819 27.606,20.25201 33.4494,20.25201 1.784,0 3.5891,0.9 4.0112,2 0.6054,1.57751 -0.3881,2 -4.703,2 -3.7183,0 -9.5276,-1.92188 -18.1367,-6 -7.4149,-3.51249 -14.5776,-6 -17.2768,-6 -2.5359,0 -14.6056,3.25181 -26.8215,7.22624 -12.216,3.97443 -27.6108,8.80372 -34.2108,10.73176 -15.0836,4.4063 -25.6522,8.46478 -30.1946,11.59496 -3.2039,2.20783 -3.4212,2.89132 -2.3652,7.43912 2.1728,9.35712 0.753,29.46834 -2.2807,32.3074 -0.6377,0.59675 -4.8451,-1.7015 -9.3497,-5.10724 z m -84.8128,-2.24457 c -0.379,-1.98237 -0.7884,-10.58157 -0.91,-19.10932 -0.1214,-8.52776 -0.4847,-16.70501 -0.8068,-18.17168 -1.8688,-8.50864 -1.7262,-10.56484 0.9978,-14.3904 4.7046,-6.60687 8.99,-18.55547 9.0238,-25.15898 0.017,-3.41882 -0.8683,-10.91882 -1.9682,-16.66667 -2.3138,-12.091789 -2.612,-23.117287 -0.625,-23.117287 1.6233,0 1.6052,-0.06101 4.5346,15.309817 2.6656,13.98605 6.7287,24.22453 10.3915,26.18476 1.4265,0.76348 2.7609,1.18953 2.9653,0.94678 1.4963,-1.77671 7.0656,-19.42151 10.8244,-34.293529 5.3334,-21.102003 7.0542,-24.382503 12.2502,-23.353259 3.4992,0.693143 3.9641,0.109293 10.6588,-13.38427 3.85,-7.759964 7,-15.661813 7,-17.559663 0,-2.146476 -1.7134,-5.164002 -4.5334,-7.983971 -3.6813,-3.681302 -5.5608,-4.533334 -10,-4.533334 -6.1005,0 -7.3404,-2.145597 -2.0125,-3.48279 5.5685,-1.397611 13.1577,1.694405 18.3995,7.496281 2.6472,2.930139 4.813,5.861118 4.813,6.513286 0,0.652168 2.2268,0.05044 4.9486,-1.337175 6.0932,-3.106456 11.223,-3.199347 17.3048,-0.313349 5.5124,2.61581 9.8758,10.194569 7.3333,12.737099 C 1788.36,52.17333 1788,52.005284 1788,50.206062 c 0,-3.760226 -6.075,-8.872727 -10.5433,-8.872727 -8.7948,0 -10.2696,1.547012 -22.1727,23.25925 -5.317,9.698575 -6.8245,13.53397 -5.6138,14.282255 1.768,1.092665 -6.8434,19.786803 -18.4548,40.06304 -3.2351,5.64917 -5.8834,10.44917 -5.8851,10.66667 0,0.2175 4.1495,0.19814 9.2245,-0.043 8.6891,-0.41289 14.7786,1.09384 14.7786,3.65664 0,0.61839 -4.518,1.79632 -10.0402,2.61763 -17.0884,2.54158 -27.7885,10.1174 -33.4594,23.68969 -2.9123,6.9702 -4.0203,24.389 -1.8135,28.51228 1.4693,2.74552 1.3776,3.37031 -0.6711,4.57122 -5.193,3.04398 -9.7466,7.52284 -11.6553,11.46388 l -2.0079,4.14578 -0.689,-3.6043 z m -255.6636,-57.85685 c 0,-0.68339 5.391,-4.08502 11.9802,-7.55918 11.3428,-5.98056 24.0198,-16.49878 24.0198,-19.92944 0,-0.86529 -2.85,-2.63366 -6.3334,-3.92971 -3.4833,-1.29606 -6.8653,-2.83959 -7.5156,-3.43007 -0.6502,-0.59049 -3.9744,-0.74292 -7.3869,-0.33875 -6.826,0.80843 -17.5621,-1.04432 -30.5489,-5.27188 -7.9148,-2.57652 -8.4178,-2.98061 -7.9211,-6.36499 0.5121,-3.489453 0.1836,-3.697852 -9.5485,-6.056177 -10.4352,-2.528711 -19.9738,-7.353173 -20.2207,-10.22735 -0.079,-0.907467 -0.228,-2.638446 -0.3333,-3.846619 -0.1996,-2.289131 -10.051,-11.592356 -15.1041,-14.26368 -1.6017,-0.846803 -5.5394,-1.539642 -8.7505,-1.539642 -7.3117,0 -11.9025,4.36035 -14.7397,14.000001 -1.857,6.309169 -2.0138,6.470043 -2.9243,3 -3.0808,-11.740673 8.6513,-25.039854 20.1812,-22.876848 4.71,0.883622 4.8339,0.805444 3.9983,-2.523929 -0.8727,-3.476992 0.9254,-6.115827 2.4673,-3.620974 1.6707,2.703263 2.7282,1.244923 2.8644,-3.950324 0.157,-5.984899 2.9116,-10.937217 7.9028,-14.207562 2.3615,-1.547306 3.8058,-1.794248 4.7823,-0.817685 0.9765,0.976563 0.5637,1.664223 -1.3671,2.277016 -6.7601,2.145586 -10.5548,13.770935 -6.7908,20.804109 1.5252,2.84988 26.9746,21.318685 35.1448,25.504857 4.2939,2.200039 5.7048,2.383271 8.1744,1.06156 3.7914,-2.02904 5.1574,-1.556475 21.2811,7.362652 l 13.3117,7.363592 9.5998,-3.501176 c 9.0602,-3.304489 9.5325,-3.677664 8.405,-6.642813 -2.5393,-6.679098 -7.14,-14.84913 -12.1117,-21.5086 -5.302,-7.101997 -6.3057,-9.723876 -3.7224,-9.723876 3.0555,0 9.1035,5.609757 17.3381,16.081771 12.7966,16.273366 18.4604,18.39455 60.5344,22.670969 37.1256,3.773459 49.9815,6.616208 63.1139,13.955988 5.5781,3.11772 6.0159,3.17266 7.6913,0.96524 1.6683,-2.19788 1.7792,-2.17781 1.8191,0.3291 0.023,1.46835 3.0424,7.76697 6.7091,13.99693 3.6666,6.22996 6.6666,11.77859 6.6666,12.33027 0,1.46221 -2.3706,1.22733 -3.3333,-0.33027 -0.4532,-0.73333 -5.5887,-1.33333 -11.412,-1.33333 h -10.588 v -5.10091 c 0,-3.60797 -0.9032,-5.94943 -3.086,-8 -3.8097,-3.57913 -10.7187,-3.73164 -42.2473,-0.93259 -38.8426,3.44836 -64.3056,8.99464 -80.3148,17.4939 -12.746,6.76684 -31.6852,11.9255 -31.6852,8.63042 z m 463.5713,-27.6306 c -1.9855,-1.98549 -0.768,-8.48529 2.0953,-11.18593 6.2062,-5.85357 26.6366,-18.607624 29.8072,-18.607624 3.8816,0 10.9532,-3.457065 18.8595,-9.219741 5.3113,-3.871279 5.6667,-4.533275 5.6667,-10.555335 0,-6.47103 -1.2567,-8.672546 -7.3312,-12.843858 -4.0618,-2.78908 -1.4844,-3.87129 3.3122,-1.390825 4.9735,2.571856 8.6002,10.103532 7.5042,15.583893 -0.7956,3.978011 0.2828,4.791254 2.8925,2.181422 2.7461,-2.746064 3.6649,0.255001 1.3259,4.33052 -2.2096,3.850187 -2.1959,3.913924 0.8453,3.913924 6.9191,0 14.1332,9.347968 14.0973,18.267121 -0.033,8.362843 -2.1557,9.507753 -3.1886,1.720453 -1.9162,-14.444447 -10.9724,-17.14249 -26.3511,-7.850559 -7.7644,4.691367 -8.8676,5.81809 -7.7468,7.912349 2.3305,4.3546 1.4529,5.39084 -8.3597,9.87069 -11.7115,5.34675 -31.3338,9.9684 -33.4287,7.8735 z"
       id="path1313" />
  </g>
</svg>
